<?xml version="1.0" encoding="utf-8"?>
<!-- Generator: Adobe Illustrator 27.0.1, SVG Export Plug-In . SVG Version: 6.00 Build 0)  -->
<svg version="1.1" id="Layer_1" xmlns="http://www.w3.org/2000/svg" xmlns:xlink="http://www.w3.org/1999/xlink" x="0px" y="0px"
	 viewBox="0 0 32 32" style="enable-background:new 0 0 32 32;" xml:space="preserve">
<style type="text/css">
	.st0{fill-rule:evenodd;clip-rule:evenodd;}
</style>
<g>
	<g id="Icon">
		<path d="M11.2,14.5v3c0,0.9,0.4,1.7,1,2.4c0.6,0.6,1.5,1,2.4,1h3c0.9,0,1.7-0.4,2.4-1c0.6-0.6,1-1.5,1-2.4v-3c0-0.9-0.4-1.7-1-2.4
			c-0.6-0.6-1.5-1-2.4-1h-3c-0.9,0-1.7,0.4-2.4,1C11.5,12.8,11.2,13.6,11.2,14.5z"/>
		<path d="M0,3.3v3c0,0.9,0.4,1.7,1,2.4s1.5,1,2.4,1h3c0.9,0,1.7-0.4,2.4-1s1-1.5,1-2.4v-3c0-0.9-0.4-1.7-1-2.4S7.2,0,6.3,0h-3
			C2.5,0,1.6,0.4,1,1S0,2.5,0,3.3z"/>
		<path d="M22.3,25.7v3c0,0.9,0.4,1.7,1,2.4c0.6,0.6,1.5,1,2.4,1h3c0.9,0,1.7-0.4,2.4-1c0.6-0.6,1-1.5,1-2.4v-3c0-0.9-0.4-1.7-1-2.4
			c-0.6-0.6-1.5-1-2.4-1h-3c-0.9,0-1.7,0.4-2.4,1S22.3,24.8,22.3,25.7z"/>
		<path d="M8.6,6h19.3c0.5,0,1,0.2,1.3,0.5c0.3,0.3,0.5,0.8,0.5,1.3V13c0,0.5-0.2,1-0.5,1.3c-0.3,0.3-0.8,0.5-1.3,0.5h-4.5
			c-0.6,0-1.1,0.5-1.1,1.1c0,0.6,0.5,1.1,1.1,1.1h4.5c1.1,0,2.1-0.4,2.9-1.2c0.8-0.8,1.2-1.8,1.2-2.9c0-1.6,0-3.6,0-5.2
			c0-1.1-0.4-2.1-1.2-2.9C30,4.2,29,3.7,27.9,3.7c-6.1,0-19.3,0-19.3,0c-0.6,0-1.1,0.5-1.1,1.1S7.9,6,8.6,6z"/>
		<path d="M17.5,26H4.1c-0.5,0-1-0.2-1.3-0.5c-0.3-0.3-0.5-0.8-0.5-1.3c0-1.6,0-3.6,0-5.2c0-0.5,0.2-1,0.5-1.3
			c0.3-0.3,0.8-0.5,1.3-0.5h8.2c0.6,0,1.1-0.5,1.1-1.1c0-0.6-0.5-1.1-1.1-1.1H4.1c-1.1,0-2.1,0.4-2.9,1.2C0.4,16.8,0,17.9,0,19v5.2
			c0,1.1,0.4,2.1,1.2,2.9C2,27.8,3,28.3,4.1,28.3h13.4c0.6,0,1.1-0.5,1.1-1.1C18.6,26.5,18.1,26,17.5,26z"/>
		<path d="M27.2,18.2L25,16l2.2-2.2c0.4-0.4,0.4-1.1,0-1.6c-0.4-0.4-1.1-0.4-1.6,0l-3,3c-0.4,0.4-0.4,1.1,0,1.6l3,3
			c0.4,0.4,1.1,0.4,1.6,0C27.6,19.3,27.6,18.6,27.2,18.2z"/>
		<path d="M16.8,30.9l3-3c0.4-0.4,0.4-1.1,0-1.6l-3-3c-0.4-0.4-1.1-0.4-1.6,0c-0.4,0.4-0.4,1.1,0,1.6l2.2,2.2l-2.2,2.2
			c-0.4,0.4-0.4,1.1,0,1.6C15.6,31.4,16.4,31.4,16.8,30.9z"/>
	</g>
</g>
</svg>
