<?xml version="1.0" encoding="utf-8"?>
<!-- Generator: Adobe Illustrator 27.0.1, SVG Export Plug-In . SVG Version: 6.00 Build 0)  -->
<svg version="1.1" id="Layer_1" xmlns="http://www.w3.org/2000/svg" xmlns:xlink="http://www.w3.org/1999/xlink" x="0px" y="0px"
	 viewBox="0 0 312 45" style="enable-background:new 0 0 312 45;" xml:space="preserve">
<style type="text/css">
	.st0{fill:#FFFFFF;}
	.st1{fill:#414042;}
</style>
<g>
	<g>
		<g>
			<polygon class="st0" points="53.5,23.1 66.4,45 53.9,45 40.7,22.6 47,11.8 52.9,22 52.9,22 53.5,23.1 			"/>
			<polygon class="st0" points="72.7,10.8 66.1,22.1 54.1,22 60.2,11.4 66.5,11.4 66.5,10.7 27.1,10.7 20.8,0 66.4,0 			"/>
		</g>
		<g>
			<polygon class="st0" points="45.9,34.3 39.6,45 27.5,45 33.8,34.3 			"/>
		</g>
	</g>
	<g>
		<path class="st0" d="M127.1,7.7c6.1-0.1,11.3,5.1,11.2,11.2c0,2.2-0.6,4.2-1.8,6.1c-1.2,1.8-2.7,3.1-4.7,4l6.4,8.3H126l-5.6-7.2
			h-10.3v7.2H98.6V7.7H127.1z M110.1,16.4v5h14.1c0.7,0,1.3-0.2,1.8-0.7c0.5-0.5,0.7-1.1,0.7-1.8c0-1.4-1.1-2.5-2.5-2.5H110.1z"/>
		<path class="st0" d="M160.6,7.7h13.7l15.9,29.6h-13l-2.3-5.1h-14.8l-2.3,5.1h-13L160.6,7.7z M163.4,25h8.1l-4-8.7L163.4,25z"/>
		<path class="st0" d="M208.2,27.2v10.1h-11.5V7.7h11.5v10.1h5l10.8-10.1h15.1l-15.3,14.8l15.3,14.8h-15.1l-10.8-10.1H208.2z"/>
		<path class="st0" d="M261.6,7.7h13.7l15.9,29.6h-13l-2.3-5.1h-14.8l-2.3,5.1h-13L261.6,7.7z M264.4,25h8.1l-4-8.7L264.4,25z"/>
	</g>
</g>
</svg>
